<svg viewBox="0 0 172 88" fill="none" xmlns="http://www.w3.org/2000/svg">
<path d="M169.004 14.1753L169.004 14.1741C169.318 12.9598 169.342 11.6914 169.072 10.4666C168.803 9.24206 168.249 8.09825 167.458 7.12057C166.667 6.14318 165.661 5.35808 164.519 4.8196C163.378 4.28121 162.128 4.00191 160.863 4H160.86H27.2535H27.2532C25.3972 4.00028 23.5863 4.59831 22.1089 5.711C20.6305 6.82446 19.5672 8.39322 19.1053 10.1767C19.1052 10.1769 19.1052 10.1772 19.1051 10.1774L2.25594 75.1574C1.94042 76.3725 1.91624 77.642 2.18556 78.8679C2.45482 80.0936 3.00922 81.2384 3.80122 82.2167C4.59295 83.1946 5.60058 83.9797 6.74379 84.5176C7.88679 85.0554 9.1383 85.3334 10.4039 85.3333H144.002H144.002C145.858 85.333 147.669 84.735 149.146 83.6223C150.624 82.5089 151.688 80.9402 152.15 79.1568C152.15 79.1565 152.15 79.1562 152.15 79.1559L169.004 14.1753Z" fill="#8145FF" stroke="#FFFEFE" stroke-width="4"/>
<g filter="url(#filter0_dd_906_69)">
<path d="M62.3984 12.6666H40.4344C40.024 12.6634 39.6234 12.791 39.2912 13.0309C38.9589 13.2708 38.7124 13.6104 38.5877 13.9999L37.1157 18.7288C37.029 19.0148 37.011 19.3171 37.0631 19.6113C37.1152 19.9056 37.236 20.1835 37.4157 20.4226C37.5954 20.6618 37.829 20.8555 38.0977 20.9882C38.3663 21.1209 38.6625 21.1889 38.9624 21.1866H53.6824L39.8902 65.5955C39.6587 66.3298 39.1974 66.9711 38.5737 67.4253C37.95 67.8796 37.1968 68.123 36.4243 68.1199H14.5406C14.1302 68.1167 13.7296 68.2444 13.3974 68.4843C13.0651 68.7242 12.8186 69.0637 12.6939 69.4532L11.2219 74.1821C11.13 74.4698 11.1081 74.775 11.1577 75.0728C11.2074 75.3705 11.3274 75.6523 11.5076 75.8948C11.6879 76.1374 11.9235 76.3338 12.1948 76.468C12.4662 76.6022 12.7656 76.6702 13.0685 76.6666H38.9847C40.7543 76.6742 42.48 76.1175 43.9094 75.0779C45.3388 74.0384 46.3969 72.5704 46.929 70.8888L64.2317 15.1243C64.3181 14.8394 64.3362 14.5383 64.2848 14.2451C64.2334 13.9519 64.1138 13.6748 63.9357 13.4359C63.7575 13.197 63.5256 13.003 63.2587 12.8694C62.9917 12.7358 62.6971 12.6663 62.3984 12.6666Z" fill="white"/>
</g>
<g filter="url(#filter1_dd_906_69)">
<path d="M105.738 12.6666H75.1022C74.6922 12.6648 74.2923 12.793 73.9603 13.0327C73.6283 13.2725 73.3815 13.6112 73.2556 14L61.1896 52.8622C61.1029 53.1482 61.0849 53.4505 61.137 53.7447C61.1891 54.039 61.3099 54.3169 61.4896 54.556C61.6693 54.7952 61.9029 54.989 62.1716 55.1217C62.4403 55.2544 62.7365 55.3223 63.0363 55.32H93.6718C94.0818 55.3218 94.4817 55.1936 94.8137 54.9539C95.1457 54.7142 95.3925 54.3754 95.5185 53.9866L96.986 49.2578C97.0727 48.9717 97.0907 48.6694 97.0386 48.3752C96.9864 48.081 96.8657 47.8031 96.686 47.5639C96.5063 47.3247 96.2727 47.131 96.004 46.9983C95.7353 46.8656 95.4391 46.7977 95.1393 46.8H74.3529C74.053 46.8023 73.7568 46.7344 73.4882 46.6017C73.2195 46.469 72.9859 46.2752 72.8062 46.036C72.6265 45.7969 72.5057 45.519 72.4536 45.2248C72.4015 44.9305 72.4195 44.6282 72.5062 44.3422L73.9737 39.6133C74.0996 39.2245 74.3465 38.8858 74.6785 38.6461C75.0105 38.4064 75.4104 38.2782 75.8204 38.28H89.9918C90.4018 38.2818 90.8017 38.1536 91.1337 37.9139C91.4657 37.6742 91.7125 37.3354 91.8385 36.9466L93.306 32.2178C93.3983 31.9287 93.4201 31.6218 93.3695 31.3227C93.3189 31.0235 93.1974 30.7407 93.015 30.4977C92.8327 30.2548 92.5948 30.0587 92.3211 29.9257C92.0474 29.7928 91.7459 29.7268 91.4415 29.7333H79.6521C79.3522 29.7356 79.056 29.6677 78.7874 29.535C78.5187 29.4023 78.2851 29.2085 78.1054 28.9694C77.9257 28.7302 77.8049 28.4523 77.7528 28.1581C77.7007 27.8638 77.7187 27.5615 77.8054 27.2755L79.2729 22.5466C79.3988 22.1579 79.6457 21.8191 79.9777 21.5794C80.3097 21.3397 80.7096 21.2115 81.1196 21.2133H104.266C104.676 21.2165 105.077 21.0888 105.409 20.8489C105.741 20.609 105.988 20.2695 106.112 19.88L107.584 15.1511C107.676 14.8634 107.698 14.5582 107.648 14.2604C107.599 13.9627 107.479 13.681 107.299 13.4384C107.118 13.1958 106.883 12.9994 106.611 12.8652C106.34 12.7311 106.041 12.663 105.738 12.6666Z" fill="white"/>
</g>
<g filter="url(#filter2_dd_906_69)">
<path d="M116.595 13.9997L104.529 52.862C104.442 53.148 104.424 53.4503 104.476 53.7445C104.529 54.0387 104.649 54.3167 104.829 54.5558C105.009 54.795 105.242 54.9887 105.511 55.1214C105.78 55.2541 106.076 55.3221 106.376 55.3198H111.001C111.412 55.323 111.812 55.1953 112.145 54.9554C112.477 54.7155 112.723 54.3759 112.848 53.9864L123.032 21.1998H129.089C129.389 21.1974 129.685 21.2654 129.954 21.3981C130.222 21.5308 130.456 21.7245 130.636 21.9637C130.815 22.2029 130.936 22.4808 130.988 22.775C131.04 23.0692 131.022 23.3715 130.936 23.6575L121.863 52.8753C121.776 53.1613 121.758 53.4636 121.81 53.7579C121.862 54.0521 121.983 54.33 122.163 54.5692C122.343 54.8083 122.576 55.0021 122.845 55.1348C123.114 55.2675 123.41 55.3354 123.71 55.3331H128.34C128.75 55.3349 129.15 55.2067 129.482 54.967C129.814 54.7273 130.06 54.3885 130.186 53.9998L140.37 21.2131H146.427C146.727 21.2108 147.023 21.2787 147.292 21.4114C147.561 21.5441 147.794 21.7378 147.974 21.977C148.154 22.2162 148.275 22.4941 148.327 22.7883C148.379 23.0825 148.361 23.3848 148.274 23.6709L139.197 52.8886C139.113 53.1738 139.097 53.4747 139.15 53.7671C139.203 54.0596 139.324 54.3356 139.504 54.5731C139.683 54.8106 139.916 55.003 140.183 55.135C140.451 55.2669 140.745 55.3348 141.043 55.3331H145.674C146.084 55.3363 146.485 55.2086 146.817 54.9687C147.149 54.7288 147.396 54.3893 147.52 53.9998L159.591 15.1375C159.677 14.8515 159.695 14.5492 159.643 14.255C159.591 13.9608 159.47 13.6828 159.291 13.4437C159.111 13.2045 158.877 13.0108 158.609 12.8781C158.34 12.7454 158.044 12.6774 157.744 12.6797H118.442C118.033 12.677 117.635 12.8033 117.303 13.0405C116.971 13.2776 116.723 13.6135 116.595 13.9997Z" fill="white"/>
</g>
<g filter="url(#filter3_dd_906_69)">
<path d="M69.1784 63.8663H58.3079C58.154 63.8658 58.004 63.9142 57.8796 64.0045C57.7553 64.0949 57.6631 64.2224 57.6166 64.3686L54.0838 75.7463C54.0507 75.8534 54.0435 75.9668 54.0628 76.0772C54.0821 76.1876 54.1273 76.2918 54.1947 76.3815C54.2621 76.4712 54.3498 76.5437 54.4506 76.5932C54.5515 76.6427 54.6627 76.6678 54.7751 76.6663H65.6457C65.7997 76.6676 65.9501 76.6195 66.0746 76.529C66.1991 76.4386 66.2911 76.3106 66.337 76.1641L67.2292 73.3197C67.2622 73.2126 67.2694 73.0992 67.2501 72.9888C67.2308 72.8785 67.1857 72.7742 67.1183 72.6845C67.0509 72.5948 66.9631 72.5223 66.8623 72.4728C66.7614 72.4233 66.6502 72.3982 66.5378 72.3997H60.2171C60.1046 72.4011 59.9935 72.3761 59.8926 72.3266C59.7917 72.2771 59.704 72.2045 59.6366 72.1149C59.5692 72.0252 59.524 71.9209 59.5047 71.8105C59.4855 71.7001 59.4927 71.5868 59.5257 71.4797L60.4178 68.6352C60.4637 68.4887 60.5558 68.3608 60.6803 68.2703C60.8048 68.1799 60.9551 68.1317 61.1092 68.133H68.2908C68.4449 68.1343 68.5952 68.0861 68.7197 67.9957C68.8442 67.9052 68.9362 67.7773 68.9822 67.6308L69.8743 64.7863C69.9075 64.6789 69.9146 64.5651 69.8951 64.4544C69.8756 64.3437 69.83 64.2391 69.7621 64.1493C69.6942 64.0595 69.6059 63.9871 69.5044 63.9379C69.403 63.8887 69.2913 63.8642 69.1784 63.8663Z" fill="white"/>
</g>
<g filter="url(#filter4_dd_906_69)">
<path d="M86.383 64.7867L82.8502 76.1645C82.8037 76.3107 82.7115 76.4382 82.5871 76.5286C82.4628 76.6189 82.3127 76.6673 82.1588 76.6668H71.2883C71.1759 76.6682 71.0647 76.6432 70.9638 76.5937C70.863 76.5442 70.7752 76.4716 70.7078 76.3819C70.6404 76.2922 70.5953 76.188 70.576 76.0776C70.5567 75.9672 70.5639 75.8538 70.5969 75.7467L74.1297 64.369C74.1757 64.2224 74.2677 64.0945 74.3922 64.0041C74.5167 63.9136 74.6671 63.8655 74.8211 63.8668H85.6916C85.8041 63.8653 85.9153 63.8904 86.0161 63.9399C86.117 63.9893 86.2047 64.0619 86.2721 64.1516C86.3395 64.2413 86.3847 64.3455 86.404 64.4559C86.4232 64.5663 86.4161 64.6797 86.383 64.7867ZM76.931 68.6356L75.9541 71.7779C75.9329 71.8483 75.9282 71.9227 75.9404 71.9952C75.9526 72.0677 75.9814 72.1365 76.0245 72.1962C76.0676 72.2559 76.1239 72.3049 76.189 72.3395C76.2542 72.3741 76.3264 72.3933 76.4002 72.3956H79.3353C79.4893 72.3969 79.6397 72.3488 79.7642 72.2583C79.8887 72.1679 79.9807 72.04 80.0267 71.8934L81.0035 68.7467C81.0248 68.6763 81.0295 68.602 81.0173 68.5294C81.0051 68.4569 80.9763 68.3881 80.9332 68.3284C80.8901 68.2687 80.8338 68.2197 80.7686 68.1851C80.7035 68.1505 80.6312 68.1313 80.5575 68.129H77.6135C77.4605 68.1306 77.3121 68.1805 77.1894 68.2716C77.0668 68.3626 76.9763 68.4901 76.931 68.6356Z" fill="white"/>
</g>
<g filter="url(#filter5_dd_906_69)">
<path d="M102.347 66.5334L99.515 75.6667C99.4224 75.959 99.238 76.2138 98.9891 76.3939C98.7402 76.5739 98.4398 76.6695 98.1322 76.6667H87.7836C87.6726 76.6673 87.5631 76.6419 87.4637 76.5925C87.3644 76.5432 87.278 76.4714 87.2117 76.3827C87.1453 76.2941 87.1007 76.1912 87.0815 76.0823C87.0623 75.9734 87.069 75.8615 87.1011 75.7556L90.6384 64.3645C90.6843 64.2192 90.7758 64.0923 90.8995 64.0027C91.0231 63.9131 91.1724 63.8654 91.3253 63.8667H100.363C100.686 63.8667 101.006 63.9423 101.295 64.0874C101.584 64.2325 101.836 64.443 102.029 64.7023C102.222 64.9615 102.351 65.2621 102.406 65.5801C102.462 65.8981 102.442 66.2246 102.347 66.5334ZM93.4263 68.6312L92.5342 71.4889C92.5052 71.5934 92.501 71.7032 92.5217 71.8096C92.5425 71.916 92.5877 72.0162 92.6538 72.1023C92.7199 72.1884 92.8051 72.2581 92.9028 72.3059C93.0004 72.3537 93.1078 72.3783 93.2166 72.3778H95.3131C95.6195 72.3801 95.9185 72.2842 96.1659 72.1041C96.4133 71.924 96.596 71.6694 96.687 71.3778L97.133 69.9378C97.1984 69.7251 97.2123 69.5001 97.1739 69.2809C97.1354 69.0618 97.0456 68.8548 96.9117 68.6768C96.7779 68.4988 96.6037 68.3548 96.4034 68.2565C96.2031 68.1582 95.9824 68.1084 95.7592 68.1112H94.1177C93.9638 68.1127 93.8147 68.1644 93.6931 68.2583C93.5715 68.3522 93.484 68.4831 93.4441 68.6312H93.4263Z" fill="white"/>
</g>
<g filter="url(#filter6_dd_906_69)">
<path d="M107.147 64.369L103.615 75.7467C103.581 75.8538 103.574 75.9672 103.594 76.0776C103.613 76.188 103.658 76.2922 103.725 76.3819C103.793 76.4716 103.881 76.5442 103.981 76.5937C104.082 76.6432 104.193 76.6682 104.306 76.6668H106.924C107.078 76.6673 107.228 76.6189 107.353 76.5286C107.477 76.4382 107.569 76.3107 107.616 76.1645L111.148 64.7867C111.182 64.6797 111.189 64.5663 111.169 64.4559C111.15 64.3455 111.105 64.2413 111.038 64.1516C110.97 64.0619 110.882 63.9893 110.782 63.9399C110.681 63.8904 110.57 63.8653 110.457 63.8668H107.839C107.685 63.8662 107.535 63.9146 107.41 64.0049C107.286 64.0953 107.194 64.2228 107.147 64.369Z" fill="white"/>
</g>
<g filter="url(#filter7_dd_906_69)">
<path d="M111.871 75.7468L115.404 64.369C115.45 64.2228 115.542 64.0953 115.667 64.0049C115.791 63.9146 115.941 63.8662 116.095 63.8668H126.966C127.078 63.8653 127.189 63.8904 127.29 63.9399C127.391 63.9893 127.479 64.0619 127.546 64.1516C127.614 64.2413 127.659 64.3455 127.678 64.4559C127.697 64.5663 127.69 64.6797 127.657 64.7867L124.124 76.1645C124.078 76.3107 123.986 76.4382 123.861 76.5286C123.737 76.6189 123.587 76.6673 123.433 76.6668H120.819C120.706 76.6682 120.595 76.6432 120.494 76.5937C120.394 76.5442 120.306 76.4716 120.238 76.3819C120.171 76.2922 120.126 76.188 120.107 76.0776C120.087 75.9672 120.094 75.8538 120.128 75.7468L122.22 69.0534C122.253 68.9463 122.26 68.833 122.241 68.7226C122.221 68.6122 122.176 68.5079 122.109 68.4182C122.041 68.3286 121.954 68.256 121.853 68.2065C121.752 68.157 121.641 68.132 121.528 68.1334H118.91C118.756 68.1329 118.606 68.1813 118.481 68.2716C118.357 68.3619 118.265 68.4895 118.218 68.6356L115.881 76.1645C115.835 76.3111 115.743 76.439 115.619 76.5294C115.494 76.6199 115.344 76.668 115.19 76.6668H112.576C112.462 76.6704 112.349 76.6469 112.247 76.5983C112.144 76.5497 112.055 76.4774 111.986 76.3875C111.917 76.2975 111.87 76.1924 111.85 76.081C111.83 75.9695 111.838 75.8549 111.871 75.7468Z" fill="white"/>
</g>
<g filter="url(#filter8_dd_906_69)">
<path d="M139.942 76.6668H129.071C128.959 76.6682 128.847 76.6432 128.747 76.5937C128.646 76.5442 128.558 76.4716 128.491 76.3819C128.423 76.2922 128.378 76.188 128.359 76.0776C128.339 75.9672 128.347 75.8538 128.38 75.7467L131.912 64.369C131.959 64.2228 132.051 64.0953 132.176 64.0049C132.3 63.9146 132.45 63.8662 132.604 63.8668H143.474C143.587 63.8653 143.698 63.8904 143.799 63.9399C143.9 63.9893 143.987 64.0619 144.055 64.1516C144.122 64.2413 144.167 64.3455 144.187 64.4559C144.206 64.5663 144.199 64.6797 144.166 64.7867L143.274 67.6312C143.229 67.7774 143.137 67.9052 143.014 67.9957C142.89 68.0861 142.74 68.1344 142.587 68.1334H135.41C135.255 68.1322 135.105 68.1803 134.981 68.2707C134.856 68.3612 134.764 68.4891 134.718 68.6356L133.688 71.9423C133.656 72.0491 133.649 72.162 133.669 72.2718C133.688 72.3816 133.734 72.4852 133.801 72.5743C133.868 72.6635 133.956 72.7356 134.056 72.7848C134.157 72.8341 134.267 72.8591 134.379 72.8579H137.528L138.18 70.769C138.226 70.6228 138.318 70.4953 138.443 70.4049C138.567 70.3146 138.717 70.2662 138.871 70.2668H141.489C141.602 70.2653 141.713 70.2904 141.814 70.3398C141.915 70.3893 142.002 70.4619 142.07 70.5516C142.137 70.6413 142.182 70.7455 142.202 70.8559C142.221 70.9663 142.214 71.0797 142.181 71.1868L140.633 76.1645C140.587 76.3111 140.495 76.439 140.37 76.5294C140.246 76.6199 140.096 76.668 139.942 76.6668Z" fill="white"/>
</g>
<path d="M33.8864 29.5554C28.5337 29.5554 24.9652 33.7777 24.9652 38.4443V29.5554H33.8864Z" fill="#FFE606"/>
<path d="M33.8864 29.5554C28.5337 29.5554 24.9652 25.3332 24.9652 20.6665V29.5554H33.8864Z" fill="#FFE606"/>
<path d="M16.0439 29.5554C21.3967 29.5554 24.9652 33.7777 24.9652 38.4443V29.5554H16.0439Z" fill="#FFE606"/>
<path d="M16.0439 29.5554C21.3967 29.5554 24.9652 25.3332 24.9652 20.6665V29.5554H16.0439Z" fill="#FFE606"/>
<path d="M22.2887 42.2221C18.9433 42.2221 16.713 44.861 16.713 47.7776V42.2221H22.2887Z" fill="#FFE606"/>
<path d="M22.2887 42.2221C18.9433 42.2221 16.713 39.5832 16.713 36.6665V42.2221H22.2887Z" fill="#FFE606"/>
<path d="M11.1372 42.2221C14.4827 42.2221 16.713 44.861 16.713 47.7776V42.2221H11.1372Z" fill="#FFE606"/>
<path d="M11.1372 42.2221C14.4827 42.2221 16.713 39.5832 16.713 36.6665V42.2221H11.1372Z" fill="#FFE606"/>
<path d="M26.3029 12.8888C18.9429 12.8888 14.0362 18.6943 14.0362 25.111V12.8888H26.3029Z" fill="#FFE606"/>
<path d="M26.3029 12.8888C18.9429 12.8888 14.0362 7.08317 14.0362 0.666504V12.8888H26.3029Z" fill="#FFE606"/>
<path d="M1.76953 12.8888C9.12953 12.8888 14.0362 18.6943 14.0362 25.111V12.8888H1.76953Z" fill="#FFE606"/>
<path d="M1.76953 12.8888C9.12953 12.8888 14.0362 7.08317 14.0362 0.666504V12.8888H1.76953Z" fill="#FFE606"/>
<defs>
<filter id="filter0_dd_906_69" x="11.1318" y="12.6665" width="55.1816" height="68" filterUnits="userSpaceOnUse" color-interpolation-filters="sRGB">
<feFlood flood-opacity="0" result="BackgroundImageFix"/>
<feColorMatrix in="SourceAlpha" type="matrix" values="0 0 0 0 0 0 0 0 0 0 0 0 0 0 0 0 0 0 127 0" result="hardAlpha"/>
<feOffset dy="3"/>
<feComposite in2="hardAlpha" operator="out"/>
<feColorMatrix type="matrix" values="0 0 0 0 0.439216 0 0 0 0 0.207843 0 0 0 0 0.92549 0 0 0 1 0"/>
<feBlend mode="normal" in2="BackgroundImageFix" result="effect1_dropShadow_906_69"/>
<feColorMatrix in="SourceAlpha" type="matrix" values="0 0 0 0 0 0 0 0 0 0 0 0 0 0 0 0 0 0 127 0" result="hardAlpha"/>
<feOffset dx="2" dy="4"/>
<feComposite in2="hardAlpha" operator="out"/>
<feColorMatrix type="matrix" values="0 0 0 0 0.439216 0 0 0 0 0.207843 0 0 0 0 0.92549 0 0 0 0.25 0"/>
<feBlend mode="normal" in2="effect1_dropShadow_906_69" result="effect2_dropShadow_906_69"/>
<feBlend mode="normal" in="SourceGraphic" in2="effect2_dropShadow_906_69" result="shape"/>
</filter>
<filter id="filter1_dd_906_69" x="61.1079" y="12.6665" width="48.5664" height="46.6533" filterUnits="userSpaceOnUse" color-interpolation-filters="sRGB">
<feFlood flood-opacity="0" result="BackgroundImageFix"/>
<feColorMatrix in="SourceAlpha" type="matrix" values="0 0 0 0 0 0 0 0 0 0 0 0 0 0 0 0 0 0 127 0" result="hardAlpha"/>
<feOffset dy="3"/>
<feComposite in2="hardAlpha" operator="out"/>
<feColorMatrix type="matrix" values="0 0 0 0 0.439216 0 0 0 0 0.207843 0 0 0 0 0.92549 0 0 0 1 0"/>
<feBlend mode="normal" in2="BackgroundImageFix" result="effect1_dropShadow_906_69"/>
<feColorMatrix in="SourceAlpha" type="matrix" values="0 0 0 0 0 0 0 0 0 0 0 0 0 0 0 0 0 0 127 0" result="hardAlpha"/>
<feOffset dx="2" dy="4"/>
<feComposite in2="hardAlpha" operator="out"/>
<feColorMatrix type="matrix" values="0 0 0 0 0.439216 0 0 0 0 0.207843 0 0 0 0 0.92549 0 0 0 0.25 0"/>
<feBlend mode="normal" in2="effect1_dropShadow_906_69" result="effect2_dropShadow_906_69"/>
<feBlend mode="normal" in="SourceGraphic" in2="effect2_dropShadow_906_69" result="shape"/>
</filter>
<filter id="filter2_dd_906_69" x="104.447" y="12.6797" width="57.2251" height="46.6533" filterUnits="userSpaceOnUse" color-interpolation-filters="sRGB">
<feFlood flood-opacity="0" result="BackgroundImageFix"/>
<feColorMatrix in="SourceAlpha" type="matrix" values="0 0 0 0 0 0 0 0 0 0 0 0 0 0 0 0 0 0 127 0" result="hardAlpha"/>
<feOffset dy="3"/>
<feComposite in2="hardAlpha" operator="out"/>
<feColorMatrix type="matrix" values="0 0 0 0 0.439216 0 0 0 0 0.207843 0 0 0 0 0.92549 0 0 0 1 0"/>
<feBlend mode="normal" in2="BackgroundImageFix" result="effect1_dropShadow_906_69"/>
<feColorMatrix in="SourceAlpha" type="matrix" values="0 0 0 0 0 0 0 0 0 0 0 0 0 0 0 0 0 0 127 0" result="hardAlpha"/>
<feOffset dx="2" dy="4"/>
<feComposite in2="hardAlpha" operator="out"/>
<feColorMatrix type="matrix" values="0 0 0 0 0.439216 0 0 0 0 0.207843 0 0 0 0 0.92549 0 0 0 0.25 0"/>
<feBlend mode="normal" in2="effect1_dropShadow_906_69" result="effect2_dropShadow_906_69"/>
<feBlend mode="normal" in="SourceGraphic" in2="effect2_dropShadow_906_69" result="shape"/>
</filter>
<filter id="filter3_dd_906_69" x="54.0522" y="63.8662" width="17.8535" height="16.8003" filterUnits="userSpaceOnUse" color-interpolation-filters="sRGB">
<feFlood flood-opacity="0" result="BackgroundImageFix"/>
<feColorMatrix in="SourceAlpha" type="matrix" values="0 0 0 0 0 0 0 0 0 0 0 0 0 0 0 0 0 0 127 0" result="hardAlpha"/>
<feOffset dy="3"/>
<feComposite in2="hardAlpha" operator="out"/>
<feColorMatrix type="matrix" values="0 0 0 0 0.439216 0 0 0 0 0.207843 0 0 0 0 0.92549 0 0 0 1 0"/>
<feBlend mode="normal" in2="BackgroundImageFix" result="effect1_dropShadow_906_69"/>
<feColorMatrix in="SourceAlpha" type="matrix" values="0 0 0 0 0 0 0 0 0 0 0 0 0 0 0 0 0 0 127 0" result="hardAlpha"/>
<feOffset dx="2" dy="4"/>
<feComposite in2="hardAlpha" operator="out"/>
<feColorMatrix type="matrix" values="0 0 0 0 0.439216 0 0 0 0 0.207843 0 0 0 0 0.92549 0 0 0 0.25 0"/>
<feBlend mode="normal" in2="effect1_dropShadow_906_69" result="effect2_dropShadow_906_69"/>
<feBlend mode="normal" in="SourceGraphic" in2="effect2_dropShadow_906_69" result="shape"/>
</filter>
<filter id="filter4_dd_906_69" x="70.5654" y="63.8667" width="17.8491" height="16.8003" filterUnits="userSpaceOnUse" color-interpolation-filters="sRGB">
<feFlood flood-opacity="0" result="BackgroundImageFix"/>
<feColorMatrix in="SourceAlpha" type="matrix" values="0 0 0 0 0 0 0 0 0 0 0 0 0 0 0 0 0 0 127 0" result="hardAlpha"/>
<feOffset dy="3"/>
<feComposite in2="hardAlpha" operator="out"/>
<feColorMatrix type="matrix" values="0 0 0 0 0.439216 0 0 0 0 0.207843 0 0 0 0 0.92549 0 0 0 1 0"/>
<feBlend mode="normal" in2="BackgroundImageFix" result="effect1_dropShadow_906_69"/>
<feColorMatrix in="SourceAlpha" type="matrix" values="0 0 0 0 0 0 0 0 0 0 0 0 0 0 0 0 0 0 127 0" result="hardAlpha"/>
<feOffset dx="2" dy="4"/>
<feComposite in2="hardAlpha" operator="out"/>
<feColorMatrix type="matrix" values="0 0 0 0 0.439216 0 0 0 0 0.207843 0 0 0 0 0.92549 0 0 0 0.25 0"/>
<feBlend mode="normal" in2="effect1_dropShadow_906_69" result="effect2_dropShadow_906_69"/>
<feBlend mode="normal" in="SourceGraphic" in2="effect2_dropShadow_906_69" result="shape"/>
</filter>
<filter id="filter5_dd_906_69" x="87.0708" y="63.8667" width="17.3662" height="16.8003" filterUnits="userSpaceOnUse" color-interpolation-filters="sRGB">
<feFlood flood-opacity="0" result="BackgroundImageFix"/>
<feColorMatrix in="SourceAlpha" type="matrix" values="0 0 0 0 0 0 0 0 0 0 0 0 0 0 0 0 0 0 127 0" result="hardAlpha"/>
<feOffset dy="3"/>
<feComposite in2="hardAlpha" operator="out"/>
<feColorMatrix type="matrix" values="0 0 0 0 0.439216 0 0 0 0 0.207843 0 0 0 0 0.92549 0 0 0 1 0"/>
<feBlend mode="normal" in2="BackgroundImageFix" result="effect1_dropShadow_906_69"/>
<feColorMatrix in="SourceAlpha" type="matrix" values="0 0 0 0 0 0 0 0 0 0 0 0 0 0 0 0 0 0 127 0" result="hardAlpha"/>
<feOffset dx="2" dy="4"/>
<feComposite in2="hardAlpha" operator="out"/>
<feColorMatrix type="matrix" values="0 0 0 0 0.439216 0 0 0 0 0.207843 0 0 0 0 0.92549 0 0 0 0.25 0"/>
<feBlend mode="normal" in2="effect1_dropShadow_906_69" result="effect2_dropShadow_906_69"/>
<feBlend mode="normal" in="SourceGraphic" in2="effect2_dropShadow_906_69" result="shape"/>
</filter>
<filter id="filter6_dd_906_69" x="103.583" y="63.8667" width="9.59717" height="16.8003" filterUnits="userSpaceOnUse" color-interpolation-filters="sRGB">
<feFlood flood-opacity="0" result="BackgroundImageFix"/>
<feColorMatrix in="SourceAlpha" type="matrix" values="0 0 0 0 0 0 0 0 0 0 0 0 0 0 0 0 0 0 127 0" result="hardAlpha"/>
<feOffset dy="3"/>
<feComposite in2="hardAlpha" operator="out"/>
<feColorMatrix type="matrix" values="0 0 0 0 0.439216 0 0 0 0 0.207843 0 0 0 0 0.92549 0 0 0 1 0"/>
<feBlend mode="normal" in2="BackgroundImageFix" result="effect1_dropShadow_906_69"/>
<feColorMatrix in="SourceAlpha" type="matrix" values="0 0 0 0 0 0 0 0 0 0 0 0 0 0 0 0 0 0 127 0" result="hardAlpha"/>
<feOffset dx="2" dy="4"/>
<feComposite in2="hardAlpha" operator="out"/>
<feColorMatrix type="matrix" values="0 0 0 0 0.439216 0 0 0 0 0.207843 0 0 0 0 0.92549 0 0 0 0.25 0"/>
<feBlend mode="normal" in2="effect1_dropShadow_906_69" result="effect2_dropShadow_906_69"/>
<feBlend mode="normal" in="SourceGraphic" in2="effect2_dropShadow_906_69" result="shape"/>
</filter>
<filter id="filter7_dd_906_69" x="111.839" y="63.8667" width="17.8491" height="16.8003" filterUnits="userSpaceOnUse" color-interpolation-filters="sRGB">
<feFlood flood-opacity="0" result="BackgroundImageFix"/>
<feColorMatrix in="SourceAlpha" type="matrix" values="0 0 0 0 0 0 0 0 0 0 0 0 0 0 0 0 0 0 127 0" result="hardAlpha"/>
<feOffset dy="3"/>
<feComposite in2="hardAlpha" operator="out"/>
<feColorMatrix type="matrix" values="0 0 0 0 0.439216 0 0 0 0 0.207843 0 0 0 0 0.92549 0 0 0 1 0"/>
<feBlend mode="normal" in2="BackgroundImageFix" result="effect1_dropShadow_906_69"/>
<feColorMatrix in="SourceAlpha" type="matrix" values="0 0 0 0 0 0 0 0 0 0 0 0 0 0 0 0 0 0 127 0" result="hardAlpha"/>
<feOffset dx="2" dy="4"/>
<feComposite in2="hardAlpha" operator="out"/>
<feColorMatrix type="matrix" values="0 0 0 0 0.439216 0 0 0 0 0.207843 0 0 0 0 0.92549 0 0 0 0.25 0"/>
<feBlend mode="normal" in2="effect1_dropShadow_906_69" result="effect2_dropShadow_906_69"/>
<feBlend mode="normal" in="SourceGraphic" in2="effect2_dropShadow_906_69" result="shape"/>
</filter>
<filter id="filter8_dd_906_69" x="128.348" y="63.8667" width="17.8491" height="16.8003" filterUnits="userSpaceOnUse" color-interpolation-filters="sRGB">
<feFlood flood-opacity="0" result="BackgroundImageFix"/>
<feColorMatrix in="SourceAlpha" type="matrix" values="0 0 0 0 0 0 0 0 0 0 0 0 0 0 0 0 0 0 127 0" result="hardAlpha"/>
<feOffset dy="3"/>
<feComposite in2="hardAlpha" operator="out"/>
<feColorMatrix type="matrix" values="0 0 0 0 0.439216 0 0 0 0 0.207843 0 0 0 0 0.92549 0 0 0 1 0"/>
<feBlend mode="normal" in2="BackgroundImageFix" result="effect1_dropShadow_906_69"/>
<feColorMatrix in="SourceAlpha" type="matrix" values="0 0 0 0 0 0 0 0 0 0 0 0 0 0 0 0 0 0 127 0" result="hardAlpha"/>
<feOffset dx="2" dy="4"/>
<feComposite in2="hardAlpha" operator="out"/>
<feColorMatrix type="matrix" values="0 0 0 0 0.439216 0 0 0 0 0.207843 0 0 0 0 0.92549 0 0 0 0.25 0"/>
<feBlend mode="normal" in2="effect1_dropShadow_906_69" result="effect2_dropShadow_906_69"/>
<feBlend mode="normal" in="SourceGraphic" in2="effect2_dropShadow_906_69" result="shape"/>
</filter>
</defs>
</svg>
