<svg viewBox="0 0 76 103" fill="none" xmlns="http://www.w3.org/2000/svg" >
<path d="M2.29527 60.5079L37.1423 2.42963C37.5307 1.78229 38.4689 1.78229 38.8573 2.42963L73.7047 60.5079C73.8876 60.8126 73.8949 61.1916 73.724 61.5032L57.1559 91.7154C57.0546 91.9001 56.8976 92.0481 56.7072 92.1383L38.4279 100.797C38.157 100.926 37.8427 100.926 37.5717 100.797L19.2928 92.1388C19.1024 92.0486 18.9454 91.9006 18.8441 91.7159L2.27595 61.5032C2.10506 61.1916 2.11241 60.8126 2.29527 60.5079Z" fill="#7035EC"/>
<path d="M19 92L38 76L20 31L2 61L19 92Z" fill="#8145FF"/>
<path d="M57 92L38 76L56 31L74 61L57 92Z" fill="#8145FF"/>
<path d="M38 75.9999V1L2 60.9999L38 75.9999Z" fill="#B592FF"/>
<path d="M38 75.9999V1L2 60.9999L38 75.9999Z" fill="#B592FF"/>
<path d="M38 76V1L74 61L38 76Z" fill="#9B6CFF"/>
<path d="M56 31L37.9999 75.9996L20 31L37.9999 1L56 31Z" fill="#A880FF"/>
<path d="M2.29527 60.5079L37.1423 2.42963C37.5307 1.78229 38.4689 1.78229 38.8573 2.42963L73.7047 60.5079C73.8876 60.8126 73.8949 61.1916 73.724 61.5032L57.1559 91.7154C57.0546 91.9001 56.8976 92.0481 56.7072 92.1383L38.4279 100.797C38.157 100.926 37.8427 100.926 37.5717 100.797L19.2928 92.1388C19.1024 92.0486 18.9454 91.9006 18.8441 91.7159L2.27595 61.5032C2.10506 61.1916 2.11241 60.8126 2.29527 60.5079Z" stroke="white" stroke-width="3" vector-effect="non-scaling-stroke"/>
<path d="M9 29.5C17 29.5 23.5 23 23.5 15C23.5 23 30 29.5 38 29.5C30 29.5 23.5 36 23.5 44C23.5 36 17 29.5 9 29.5Z" fill="#FFE606"/>
</svg>
