<svg
  width="145"
  height="145"
  viewBox="0 0 145 145"
  fill="none"
  xmlns="http://www.w3.org/2000/svg"
>
  <path
    fill-rule="evenodd"
    clip-rule="evenodd"
    d="M72.4997 2.125C75.2107 2.125 77.4148 4.322 77.4148 7.04008V26.6863C81.006 26.7004 84.2734 26.7215 87.2379 26.806V7.04008C87.286 5.76964 87.8245 4.56726 88.7404 3.68545C89.6562 2.80364 90.8781 2.311 92.1494 2.311C93.4208 2.311 94.6427 2.80364 95.5585 3.68545C96.4744 4.56726 97.0129 5.76964 97.061 7.04008V26.6863C97.0618 26.9409 97.043 27.1952 97.0047 27.4468C103.596 28.2566 108.166 29.9325 111.637 33.4041C115.109 36.8756 116.785 41.4457 117.595 48.0367C117.846 47.9983 118.1 47.9795 118.355 47.9803H138.001C139.272 48.0284 140.474 48.567 141.356 49.4828C142.238 50.3986 142.73 51.6205 142.73 52.8919C142.73 54.1633 142.238 55.3852 141.356 56.301C140.474 57.2168 139.272 57.7553 138.001 57.8035H118.235C118.32 60.768 118.348 64.0353 118.355 67.6266H138.001C139.305 67.6266 140.555 68.1444 141.477 69.0662C142.399 69.9879 142.916 71.2381 142.916 72.5417C142.916 73.8452 142.399 75.0954 141.477 76.0172C140.555 76.9389 139.305 77.4568 138.001 77.4568H118.355C118.341 81.048 118.32 84.3153 118.235 87.2799H138.001C139.272 87.328 140.474 87.8665 141.356 88.7823C142.238 89.6982 142.73 90.9201 142.73 92.1914C142.73 93.4628 142.238 94.6847 141.356 95.6005C140.474 96.5164 139.272 97.0549 138.001 97.103H118.355C118.1 97.1038 117.846 97.085 117.595 97.0467C116.785 103.638 115.109 108.208 111.637 111.679C108.166 115.151 103.596 116.827 97.0047 117.636C97.0449 117.888 97.0638 118.142 97.061 118.397V138.043C97.0129 139.314 96.4744 140.516 95.5585 141.398C94.6427 142.28 93.4208 142.772 92.1494 142.772C90.8781 142.772 89.6562 142.28 88.7404 141.398C87.8245 140.516 87.286 139.314 87.2379 138.043V118.277C83.9642 118.36 80.6895 118.4 77.4148 118.397V138.043C77.4148 139.347 76.8969 140.597 75.9752 141.519C75.0534 142.441 73.8032 142.958 72.4997 142.958C71.1961 142.958 69.9459 142.441 69.0242 141.519C68.1024 140.597 67.5846 139.347 67.5846 138.043V118.397C64.3099 118.398 61.0352 118.358 57.7615 118.277V138.043C57.7134 139.314 57.1748 140.516 56.259 141.398C55.3432 142.28 54.1213 142.772 52.8499 142.772C51.5786 142.772 50.3567 142.28 49.4408 141.398C48.525 140.516 47.9865 139.314 47.9383 138.043V118.397C47.9383 118.136 47.9524 117.883 47.9947 117.636C41.4037 116.827 36.8336 115.151 33.3621 111.679C29.8905 108.208 28.2146 103.638 27.4048 97.0467C27.1532 97.085 26.8989 97.1038 26.6443 97.103H6.99809C5.72765 97.0549 4.52527 96.5164 3.64346 95.6005C2.76165 94.6847 2.26901 93.4628 2.26901 92.1914C2.26901 90.9201 2.76165 89.6982 3.64346 88.7823C4.52527 87.8665 5.72765 87.328 6.99809 87.2799H26.7641C26.6835 84.0061 26.6436 80.7315 26.6443 77.4568H6.99809C5.69453 77.4568 4.44436 76.9389 3.5226 76.0172C2.60084 75.0954 2.08301 73.8452 2.08301 72.5417C2.08301 71.2381 2.60084 69.9879 3.5226 69.0662C4.44436 68.1444 5.69453 67.6266 6.99809 67.6266H26.6443C26.6584 64.0353 26.6796 60.768 26.7641 57.8035H6.99809C5.72765 57.7553 4.52527 57.2168 3.64346 56.301C2.76165 55.3852 2.26901 54.1633 2.26901 52.8919C2.26901 51.6205 2.76165 50.3986 3.64346 49.4828C4.52527 48.567 5.72765 48.0284 6.99809 47.9803H26.6443C26.9049 47.9803 27.1584 47.9944 27.4048 48.0367C28.2146 41.4457 29.8905 36.8756 33.3621 33.4041C36.8336 29.9325 41.4037 28.2566 47.9947 27.4468C47.9563 27.1952 47.9375 26.9409 47.9383 26.6863V7.04008C47.9865 5.76964 48.525 4.56726 49.4408 3.68545C50.3567 2.80364 51.5786 2.311 52.8499 2.311C54.1213 2.311 55.3432 2.80364 56.259 3.68545C57.1748 4.56726 57.7134 5.76964 57.7615 7.04008V26.806C61.0352 26.7235 64.3098 26.6836 67.5846 26.6863V7.04008C67.5846 4.322 69.7886 2.125 72.4997 2.125ZM65.627 41.4245C61.2682 41.4245 57.515 41.4245 54.5153 41.833C51.2902 42.2625 48.2059 43.2413 45.6991 45.7411C43.1993 48.2479 42.2205 51.3322 41.791 54.5573C41.3825 57.564 41.3825 61.3173 41.3825 65.669V79.4143C41.3825 83.7731 41.3825 87.5193 41.791 90.5261C42.2205 93.7512 43.1993 96.8354 45.6991 99.3423C48.2059 101.842 51.2902 102.821 54.5153 103.25C57.515 103.659 61.2753 103.659 65.627 103.659H79.3723C83.7311 103.659 87.4773 103.659 90.4841 103.25C93.7092 102.821 96.7934 101.842 99.3003 99.3423C101.8 96.8354 102.779 93.7512 103.208 90.5261C103.617 87.5193 103.617 83.7661 103.617 79.4143V65.669C103.617 61.3102 103.617 57.564 103.208 54.5573C102.779 51.3322 101.8 48.2479 99.3003 45.7411C96.7934 43.2413 93.7092 42.2625 90.4841 41.833C87.4773 41.4245 83.7241 41.4245 79.3723 41.4245H65.627Z"
    fill="#8145FF"
    stroke="white"
    stroke-width="4"
  />
  <path
    d="M90.9156 54.0921L90.9289 54.1055L90.9423 54.1187C90.943 54.1194 90.9438 54.1202 90.9449 54.1211C90.9594 54.1342 91.0121 54.1818 91.0961 54.3843C91.2053 54.6476 91.3599 55.1609 91.4872 56.1227L91.4882 56.1301C91.7753 58.2372 91.7868 61.157 91.7868 65.9931V79.0906C91.7868 83.9272 91.7752 86.8463 91.4883 88.9457L91.4871 88.9548C91.3596 89.9208 91.2049 90.4353 91.0961 90.6976C91.0446 90.8218 91.0067 90.8814 90.9921 90.9026C90.9799 90.9202 90.972 90.9292 90.956 90.9446L90.9288 90.9708L90.9026 90.998C90.8872 91.014 90.8782 91.0219 90.8606 91.0341C90.8394 91.0487 90.7798 91.0866 90.6556 91.1381C90.3933 91.2469 89.8788 91.4016 88.9128 91.5291L88.9037 91.5303C86.8043 91.8172 83.8852 91.8288 79.0486 91.8288H65.9511C61.115 91.8288 58.1952 91.8173 56.0881 91.5302L56.0807 91.5292C55.1189 91.4019 54.6056 91.2473 54.3423 91.1381C54.1398 91.0541 54.0922 91.0014 54.0791 90.9869C54.0782 90.9858 54.0774 90.985 54.0768 90.9843L54.0635 90.9709L54.0501 90.9576C54.0499 90.9575 54.0496 90.9572 54.0491 90.9568C54.0411 90.9502 53.9885 90.9066 53.9018 90.6976C53.7917 90.4321 53.6356 89.9152 53.5049 88.95C53.2243 86.8469 53.2129 83.9243 53.2129 79.0906V65.9931C53.2129 61.1594 53.2243 58.2368 53.5049 56.1337C53.6355 55.1688 53.7917 54.6513 53.9023 54.384C53.9881 54.1769 54.0428 54.1253 54.0603 54.1087C54.0616 54.1075 54.0627 54.1065 54.0636 54.1056L54.11 54.0592C54.1553 54.0291 54.2252 53.9909 54.3374 53.9446C54.6074 53.8334 55.1251 53.6773 56.0846 53.5469C58.1952 53.2662 61.1184 53.2549 65.9511 53.2549H79.0486C83.8823 53.2549 86.8049 53.2662 88.908 53.5469C89.8732 53.6776 90.3901 53.8337 90.6556 53.9438C90.8646 54.0305 90.9082 54.0831 90.9148 54.0911C90.9152 54.0916 90.9155 54.0919 90.9156 54.0921Z"
    fill="#B592FF"
    stroke="white"
    stroke-width="4"
  />
</svg>
