<svg width="69" height="70" viewBox="0 0 69 70" fill="none" xmlns="http://www.w3.org/2000/svg">
<ellipse cx="34.3663" cy="34.6824" rx="33.5245" ry="33.2141" fill="#9B6CFF"/>
<path fill-rule="evenodd" clip-rule="evenodd" d="M0 34.6826C0 43.881 3.58801 52.7027 9.97472 59.2069C16.3614 65.7112 25.0237 69.3652 34.0558 69.3652C43.088 69.3652 51.7502 65.7112 58.1369 59.2069C64.5236 52.7027 68.1116 43.881 68.1116 34.6826C68.1116 25.4842 64.5236 16.6626 58.1369 10.1583C51.7502 3.65405 43.088 0 34.0558 0C25.0237 0 16.3614 3.65405 9.97472 10.1583C3.58801 16.6626 0 25.4842 0 34.6826ZM62.2735 34.6826C62.2735 42.3042 59.3006 49.6135 54.0087 55.0028C48.7169 60.392 41.5396 63.4196 34.0558 63.4196C26.572 63.4196 19.3947 60.392 14.1029 55.0028C8.81107 49.6135 5.83814 42.3042 5.83814 34.6826C5.83814 27.0611 8.81107 19.7517 14.1029 14.3625C19.3947 8.97323 26.572 5.94559 34.0558 5.94559C41.5396 5.94559 48.7169 8.97323 54.0087 14.3625C59.3006 19.7517 62.2735 27.0611 62.2735 34.6826Z" fill="white"/>
<path fill-rule="evenodd" clip-rule="evenodd" d="M19.46 34.6827C19.46 52.6067 25.2631 67.3834 34.0553 67.3834C42.8476 67.3834 48.6507 52.6067 48.6507 34.6827C48.6507 16.7587 42.8476 1.98193 34.0553 1.98193C25.2631 1.98193 19.46 16.7587 19.46 34.6827ZM42.8125 34.6827C42.8125 49.5942 38.1615 61.4378 34.0553 61.4378C29.9492 61.4378 25.2981 49.5942 25.2981 34.6827C25.2981 19.7711 29.9492 7.92752 34.0553 7.92752C38.1615 7.92752 42.8125 19.7711 42.8125 34.6827Z" fill="white"/>
<path d="M9.15445 16.7148L13.0699 12.3071C13.4591 12.6639 13.8833 13.0206 14.3348 13.3654C19.2817 17.1389 27.1787 19.4696 35.7997 19.4696C43.1597 19.4696 50.0136 17.7771 54.9916 14.8796C56.1904 14.182 57.2568 13.4249 58.1793 12.6203L61.9702 17.1429C60.7037 18.2369 59.3379 19.2058 57.8912 20.0364C51.9908 23.4769 44.1366 25.4112 35.7997 25.4112C25.9839 25.4112 16.8647 22.7238 10.8319 18.1219C10.2519 17.6794 9.6921 17.2098 9.15445 16.7148ZM9.15445 52.7134L13.0699 57.121C13.4591 56.7603 13.8833 56.4076 14.3348 56.0627C19.2817 52.2892 27.1787 49.9586 35.7997 49.9586C43.1597 49.9586 50.0136 51.6511 54.9916 54.5486C56.1904 55.2462 57.2568 56.0033 58.1793 56.8079L61.9702 52.2853C60.7021 51.1934 59.3365 50.2246 57.8912 49.3918C51.9908 45.9513 44.1366 44.0169 35.7997 44.0169C25.9839 44.0169 16.8647 46.7044 10.8319 51.3062C10.2518 51.7488 9.69209 52.2183 9.15445 52.7134ZM1.94629 37.6552V31.7096H66.1658V37.6552H1.94629Z" fill="white"/>
</svg>
