<svg width="119" height="105" viewBox="0 0 119 105" fill="none" xmlns="http://www.w3.org/2000/svg">
<path d="M30 52.5C30 51.0349 30.2861 49.5842 30.8421 48.2307C31.398 46.8771 32.2129 45.6473 33.2401 44.6113C34.2674 43.5754 35.4869 42.7536 36.8291 42.193C38.1712 41.6323 39.6098 41.3438 41.0625 41.3438C42.5152 41.3438 43.9538 41.6323 45.2959 42.193C46.6381 42.7536 47.8576 43.5754 48.8849 44.6113C49.9121 45.6473 50.727 46.8771 51.2829 48.2307C51.8389 49.5842 52.125 51.0349 52.125 52.5C52.125 55.4588 50.9595 58.2965 48.8849 60.3887C46.8102 62.4809 43.9965 63.6562 41.0625 63.6562C38.1285 63.6562 35.3148 62.4809 33.2401 60.3887C31.1655 58.2965 30 55.4588 30 52.5ZM85.3125 41.3438C82.3785 41.3438 79.5648 42.5191 77.4901 44.6113C75.4155 46.7035 74.25 49.5412 74.25 52.5C74.25 55.4588 75.4155 58.2965 77.4901 60.3887C79.5648 62.4809 82.3785 63.6562 85.3125 63.6562C88.2465 63.6562 91.0602 62.4809 93.1349 60.3887C95.2095 58.2965 96.375 55.4588 96.375 52.5C96.375 49.5412 95.2095 46.7035 93.1349 44.6113C91.0602 42.5191 88.2465 41.3438 85.3125 41.3438Z" fill="#B592FF"/>
<path d="M0.5 4.15625C0.5 3.16998 0.888503 2.2241 1.58004 1.5267C2.27158 0.829296 3.20951 0.4375 4.1875 0.4375H11.5625C12.5405 0.4375 13.4784 0.829296 14.17 1.5267C14.8615 2.2241 15.25 3.16998 15.25 4.15625V22.75H114.812C115.79 22.75 116.728 23.1418 117.42 23.8392C118.112 24.5366 118.5 25.4825 118.5 26.4688V78.5312C118.5 79.5175 118.112 80.4634 117.42 81.1608C116.728 81.8582 115.79 82.25 114.812 82.25H15.25V100.844C15.25 101.83 14.8615 102.776 14.17 103.473C13.4784 104.171 12.5405 104.562 11.5625 104.562C10.5845 104.562 9.64658 104.171 8.95504 103.473C8.2635 102.776 7.875 101.83 7.875 100.844V7.875H4.1875C3.20951 7.875 2.27158 7.4832 1.58004 6.7858C0.888503 6.0884 0.5 5.14252 0.5 4.15625ZM41.0625 33.9062C36.1726 33.9063 31.4829 35.8652 28.0252 39.3522C24.5675 42.8392 22.625 47.5686 22.625 52.5C22.625 57.4314 24.5675 62.1608 28.0252 65.6478C31.4829 69.1348 36.1726 71.0938 41.0625 71.0938C45.9524 71.0938 50.6421 69.1348 54.0998 65.6478C57.5575 62.1608 59.5 57.4314 59.5 52.5C59.5 47.5686 57.5575 42.8392 54.0998 39.3522C50.6421 35.8652 45.9524 33.9063 41.0625 33.9062ZM66.875 52.5C66.875 57.4314 68.8175 62.1608 72.2752 65.6478C75.7329 69.1348 80.4226 71.0938 85.3125 71.0938C90.2024 71.0938 94.8921 69.1348 98.3498 65.6478C101.807 62.1608 103.75 57.4314 103.75 52.5C103.75 47.5686 101.807 42.8392 98.3498 39.3522C94.8921 35.8652 90.2024 33.9063 85.3125 33.9062C80.4226 33.9063 75.7329 35.8652 72.2752 39.3522C68.8175 42.8392 66.875 47.5686 66.875 52.5Z" fill="white"/>
<path d="M22.625 85.9688H48.4375V93.4062C48.4375 94.3925 48.049 95.3384 47.3575 96.0358C46.6659 96.7332 45.728 97.125 44.75 97.125H26.3125C25.3345 97.125 24.3966 96.7332 23.705 96.0358C23.0135 95.3384 22.625 94.3925 22.625 93.4062V85.9688ZM52.125 93.4062V85.9688H81.625V93.4062C81.625 94.3925 81.2365 95.3384 80.545 96.0358C79.8534 96.7332 78.9155 97.125 77.9375 97.125H55.8125C54.8345 97.125 53.8966 96.7332 53.205 96.0358C52.5135 95.3384 52.125 94.3925 52.125 93.4062Z" fill="#B592FF"/>
</svg>
