<svg
  width="131"
  height="123"
  viewBox="0 0 131 123"
  fill="none"
  xmlns="http://www.w3.org/2000/svg"
>
  <path
    d="M125.602 44.4988C125.602 65.8015 108.333 83.0708 87.0301 83.0708C65.7274 83.0708 48.4581 65.8015 48.4581 44.4988C48.4581 23.196 65.7274 5.92676 87.0301 5.92676C108.333 5.92676 125.602 23.196 125.602 44.4988Z"
    fill="#9B6CFF"
  />
  <path
    d="M80.0362 52.8252C80.4211 52.1586 81.3833 52.1586 81.7682 52.8252L117.996 115.573C118.381 116.24 117.899 117.073 117.13 117.073H44.6748C43.905 117.073 43.4238 116.24 43.8087 115.573L80.0362 52.8252Z"
    fill="#7035EC"
  />
  <path
    d="M5.39844 43.6522C5.39844 43.0999 5.84615 42.6522 6.39844 42.6522H65.763C66.3153 42.6522 66.763 43.0999 66.763 43.6522V103.017C66.763 103.569 66.3153 104.017 65.763 104.017H6.39844C5.84615 104.017 5.39844 103.569 5.39844 103.017V43.6522Z"
    fill="#B592FF"
  />
  <path
    d="M46.1854 40.1522H6.39844C4.46544 40.1522 2.89844 41.7192 2.89844 43.6522V103.017C2.89844 104.95 4.46544 106.517 6.39844 106.517H46.1506L41.6437 114.323C40.2965 116.656 41.9805 119.573 44.6748 119.573H117.13C119.824 119.573 121.508 116.656 120.161 114.323L101.948 82.7777C117.256 76.8075 128.102 61.9198 128.102 44.4988C128.102 21.8153 109.714 3.42676 87.0301 3.42676C65.8148 3.42676 48.3564 19.5121 46.1854 40.1522Z"
    stroke="white"
    stroke-width="5"
  />
  <circle cx="87.03" cy="44.4988" r="38.572" fill="#8145FF" />
  <path
    d="M80.0377 52.8247C80.4226 52.158 81.3849 52.158 81.7698 52.8247L117.997 115.572C118.382 116.239 117.901 117.072 117.131 117.072H44.6763C43.9065 117.072 43.4254 116.239 43.8103 115.572L80.0377 52.8247Z"
    fill="#9B6CFF"
  />
  <rect
    x="5.39941"
    y="42.6523"
    width="61.3646"
    height="61.3646"
    rx="1"
    fill="#B592FF"
  />
</svg>
